<svg width="16" height="16" viewBox="0 0 16 16" fill="none" xmlns="http://www.w3.org/2000/svg">
<path d="M14 7.66671V5.86671C14 4.7466 14 4.18655 13.782 3.75873C13.5903 3.3824 13.2843 3.07644 12.908 2.88469C12.4802 2.66671 11.9201 2.66671 10.8 2.66671H5.2C4.0799 2.66671 3.51984 2.66671 3.09202 2.88469C2.71569 3.07644 2.40973 3.3824 2.21799 3.75873C2 4.18655 2 4.7466 2 5.86671V11.4667C2 12.5868 2 13.1469 2.21799 13.5747C2.40973 13.951 2.71569 14.257 3.09202 14.4487C3.51984 14.6667 4.0799 14.6667 5.2 14.6667H8.33333M14 6.66671H2M10.6667 1.33337V4.00004M5.33333 1.33337V4.00004M12 14V10M10 12H14" stroke="#667085" stroke-width="1.33333" stroke-linecap="round" stroke-linejoin="round"/>
</svg>
